# xmcd
#
# Track frame offsets: 
#        150
#        12668
#        26311
#        40190
#        53932
#        66998
#        80129
#        92906
#        106710
#        119977
#        134226
#        147737
#        161810
#        175572
#        188470
#        201665
#        215088
#        228742
#        240736
#        254857
#        265209
#        277323
#        288898
#        303979
#        317110
#
# Disc length: 4438 seconds
#
# Revision: 0
# Processed by: cddbd v1.5.2PL0 Copyright (c) Steve Scherf et al.
# Submitted via: ExactAudioCopyFreeDBPlugin 1.0
#
DISCID=99115419
DTITLE=Eddie Boyd - The Blues Is Here To Stay 1947-1959 [CD1]
DYEAR=2013
DGENRE=Blues
TTITLE0=I Had To Let Her Go
TTITLE1=Kilroy Won't Be Back
TTITLE2=You Got To Leave That Gal
TTITLE3=Unfair Lovers
TTITLE4=Rosa Lee Swing
TTITLE5=Blue Monday Blues
TTITLE6=Playmate Shuffle
TTITLE7=Getting My Divorce
TTITLE8=Why Did She Leave Me
TTITLE9=Mr Highway Man
TTITLE10=Baby What's Wrong With You
TTITLE11=Eddie's Blues
TTITLE12=What Makes These Things Happen To Me
TTITLE13=Chicago Is Just That Way
TTITLE14=I Can Trust My Baby
TTITLE15=Down Beat Rhythm
TTITLE16=Something Good Will Come To Me
TTITLE17=Why Don't You Be Wise Baby
TTITLE18=I Gotta Find My Baby
TTITLE19=I'm Goin' Downtown
TTITLE20=Five Long Years
TTITLE21=Bluecoat Man
TTITLE22=Got Lonesome Here
TTITLE23=I Got The Blues
TTITLE24=I Began To Sing The Blues
EXTD=
EXTT0=
EXTT1=
EXTT2=
EXTT3=
EXTT4=
EXTT5=
EXTT6=
EXTT7=
EXTT8=
EXTT9=
EXTT10=
EXTT11=
EXTT12=
EXTT13=
EXTT14=
EXTT15=
EXTT16=
EXTT17=
EXTT18=
EXTT19=
EXTT20=
EXTT21=
EXTT22=
EXTT23=
EXTT24=
PLAYORDER=
